Coordinates
version=1
nRows=19
nColumns=36
inDegrees=yes

Units are S.I. units (second, meters, Newtons, ...)
If the header above contains a line with 'inDegrees', this indicates whether rotational values are in degrees (yes) or radians (no).

endheader
time	pelvis_tilt	pelvis_list	pelvis_rotation	pelvis_tx	pelvis_ty	pelvis_tz	hip_flexion_r	hip_adduction_r	hip_rotation_r	knee_angle_r	knee_angle_r_beta	ankle_angle_r	subtalar_angle_r	mtp_angle_r	hip_flexion_l	hip_adduction_l	hip_rotation_l	knee_angle_l	knee_angle_l_beta	ankle_angle_l	subtalar_angle_l	mtp_angle_l	lumbar_extension	lumbar_bending	lumbar_rotation	arm_flex_r	arm_add_r	arm_rot_r	elbow_flex_r	pro_sup_r	arm_flex_l	arm_add_l	arm_rot_l	elbow_flex_l	pro_sup_l
      5.03333330	     -6.76609924	     -4.99952817	     -2.68816785	      0.86370779	      0.85037088	      0.35978574	     40.07464562	     12.86632422	     -5.16749969	     62.24998712	      1.08646723	     35.70414816	     -4.85251536	     -7.49999987	     65.96919381	    -15.84581537	      5.43624375	     37.02218189	      0.64615897	      0.75072271	    -12.47008982	     -7.49999987	    -23.64787189	     10.76202701	      4.40445617	     52.75131716	     -6.99314367	     70.23170977	    124.55561736	    107.94537180	     44.88299582	      6.76653687	     68.90756800	    108.80467667	    109.00611118
      5.05000000	     -7.27202177	     -5.09855184	     -2.82844709	      0.86358713	      0.84683927	      0.35919201	     40.87079996	     13.05337147	     -5.16540250	     62.69806985	      1.09428775	     35.78455828	     -5.27886037	     -7.49999987	     66.92710614	    -15.83776621	      5.92556168	     37.52102146	      0.65486536	      0.68974127	    -12.95222342	     -7.49999987	    -23.29505571	     10.90852626	      3.93675200	     52.98500399	     -6.54590754	     70.89301274	    124.53202440	    108.01592088	     45.19856939	      6.80520505	     69.10241968	    109.22573177	    108.80605773
      5.06666670	     -7.62814660	     -5.21372214	     -3.03156102	      0.86324872	      0.84379249	      0.35953005	     41.64011658	     13.31272977	     -5.17354017	     63.27980827	      1.10444100	     35.87158837	     -5.60435931	     -7.49999987	     67.65285333	    -15.94762451	      6.22186349	     37.89086481	      0.66132035	      0.81090946	    -13.12141640	     -7.49999987	    -22.97740405	     10.85829279	      3.88912572	     53.05189024	     -6.39563954	     71.02362475	    124.86384232	    108.43436172	     45.03773401	      7.07915434	     69.08360616	    109.79897434	    108.68309615
      5.08333330	     -7.88199132	     -5.41164145	     -3.15555237	      0.86302926	      0.84603504	      0.35915913	     42.09131789	     13.60494120	     -5.17836944	     63.48820762	      1.10807826	     35.70219018	     -6.07783566	     -7.49999987	     68.07782530	    -16.00958597	      6.46718556	     37.89200600	      0.66134026	      0.95636849	    -13.03392037	     -7.49999987	    -22.86716312	     10.94069703	      3.88957506	     53.07539036	     -6.53735415	     71.17161154	    124.95821827	    108.73075587	     43.83593672	      6.91750353	     68.59655608	    110.40149419	    108.64948476
      5.10000000	     -8.12936164	     -5.49911291	     -3.27635730	      0.86311056	      0.84583665	      0.35954448	     42.24744001	     13.81031484	     -5.07084762	     63.33631650	      1.10542726	     35.70212764	     -6.38005549	     -7.49999987	     68.27892383	    -16.02469327	      6.57673154	     37.69073995	      0.65782751	      0.89066816	    -13.21902857	     -7.49999987	    -22.78372537	     10.68359989	      4.16325042	     52.91349798	     -6.99730843	     70.97699324	    125.48198556	    109.24060243	     43.20108178	      7.08365184	     68.55593044	    110.38135441	    108.60358016
      5.11666670	     -8.52564803	     -5.50800691	     -3.51679041	      0.85315065	      0.84535453	      0.35432351	     42.80155371	     13.95735414	     -4.90530177	     63.36752863	      1.10597201	     35.37812069	     -6.92846939	     -7.49999987	     68.90784586	    -16.01270124	      6.66512123	     37.72983398	      0.65850983	      1.00492525	    -12.96990139	     -7.49999987	    -22.85165912	     10.67062454	      4.41851788	     53.67987931	     -7.41243423	     71.20337035	    126.05041597	    109.26791834	     42.92207657	      7.40460503	     67.93143361	    110.59197949	    108.72420436
      5.13333330	     -8.67455661	     -5.52589106	     -3.70037800	      0.85752595	      0.84611728	      0.35223284	     42.82852245	     14.00004406	     -4.72748039	     63.14906574	      1.10215912	     35.37012975	     -7.08820172	     -7.49999987	     69.04971467	    -15.92539106	      6.71796774	     37.68202921	      0.65767548	      0.98143344	    -13.03258447	     -7.49999987	    -22.77594835	     10.64939461	      4.51463111	     53.98593924	     -7.50559980	     71.07532032	    126.08755637	    109.27342759	     42.54396190	      7.71225424	     67.32295585	    110.51687438	    108.78071056
      5.15000000	     -8.63456841	     -5.61449346	     -3.89213009	      0.85345296	      0.85243734	      0.35456991	     42.60143058	     14.12643858	     -4.52940694	     62.70182476	      1.09435329	     34.91309279	     -7.43211385	     -7.49999987	     68.79186507	    -16.01201108	      6.64557212	     37.37697219	      0.65235123	      0.78850159	    -12.87344921	     -7.49999987	    -22.90491526	     10.60660287	      4.56417417	     53.90626121	     -7.57291213	     70.77028187	    125.72728030	    109.15799481	     42.24072106	      7.72729885	     66.47691702	    110.27976220	    108.77895271
      5.16666670	     -8.67370915	     -5.68721624	     -3.94088605	      0.85398280	      0.85306244	      0.35554758	     42.45929194	     14.23085894	     -4.37991922	     62.24245581	      1.08633579	     34.40661632	     -7.92883707	     -7.49999987	     68.54782597	    -16.06753011	      6.60370976	     37.08582488	      0.64726975	      0.36872246	    -12.93338988	     -7.49999987	    -22.85103668	     10.42979751	      4.34587565	     53.74137877	     -7.34525839	     70.31566959	    125.59928197	    109.39357790	     42.14437555	      7.69338157	     66.24798862	    110.69858506	    108.97874257
      5.18333330	     -8.47329595	     -5.66710250	     -3.97472313	      0.85893866	      0.85920888	      0.35731300	     41.71991062	     14.31058642	     -4.08352305	     61.41960567	      1.07197434	     34.03786549	     -8.26548644	     -7.49999987	     67.62508259	    -16.17051543	      6.18359076	     36.43229401	      0.63586348	     -0.08364972	    -12.86131902	     -7.49999987	    -22.80260510	     10.07118065	      4.07070934	     53.21020463	     -7.02647232	     70.16957873	    125.14735778	    109.32765853	     41.73723714	      7.74276361	     66.44159876	    111.07721271	    109.07455025
      5.20000000	     -8.36913940	     -5.61075582	     -4.15062301	      0.86745818	      0.85611837	      0.35703932	     40.83163093	     14.42877508	     -3.68919304	     60.55873025	      1.05694923	     34.13854269	     -8.23576848	     -7.49999987	     66.74287931	    -16.34287032	      5.63502379	     35.84125355	      0.62554788	     -0.11949464	    -12.82426580	     -7.49999987	    -22.31232565	      9.64703838	      3.64196858	     52.22534597	     -6.41989102	     69.95419485	    124.89655895	    105.31344008	     41.05978148	      7.81929376	     67.10942490	    111.70312688	    105.02338053
      5.21666670	     -8.15128570	     -5.54363995	     -4.08466193	      0.86253380	      0.85818230	      0.35429792	     40.18481816	     14.29585367	     -3.53207123	     60.03851781	      1.04786981	     33.89107138	     -8.36202835	     -7.49999987	     65.85049438	    -16.29311491	      5.11101890	     35.28556155	      0.61584923	      0.43575491	    -11.92986449	     -7.49999987	    -22.25125783	      9.36466902	      3.07585090	     51.83827594	     -6.08083096	     69.47618211	    124.59615670	    109.28136996	     41.31489168	      7.60393134	     67.34933812	    112.05701138	    109.14992059
      5.23333330	     -8.39271296	     -5.45297833	     -4.00078409	      0.86244959	      0.86067720	      0.35433787	     39.91161212	     14.16633267	     -3.37296146	     59.30166919	      1.03500938	     33.73493112	     -8.56459015	     -7.49999987	     65.44582420	    -16.15241200	      4.61221830	     34.83438254	      0.60797467	      0.48998553	    -11.71688518	     -7.49999987	    -21.50624850	      9.03718025	      2.75948070	     51.26867232	     -5.92944391	     69.04373277	    124.46628440	    109.04634255	     41.68993351	      7.28318889	     67.91040033	    112.36070834	    109.13816889
      5.25000000	     -8.47051198	     -5.36049713	     -3.85569115	      0.86245544	      0.86362634	      0.35376273	     39.40982857	     13.97731610	     -3.21602772	     58.45761815	      1.02027791	     33.54014433	     -8.56112251	     -7.49999987	     64.68587684	    -16.02189810	      3.78221352	     34.21609098	      0.59718344	      0.64145404	    -11.16260619	     -7.49999987	    -20.90012305	      8.65213225	      2.38503652	     50.80096396	     -5.62268489	     68.93546477	    124.16656655	    108.84489839	     41.94179026	      6.80587434	     68.03400456	    112.69872578	    108.91995900
      5.26666670	     -8.73565264	     -5.29659508	     -3.72551504	      0.85803199	      0.86572504	      0.35177274	     39.47078410	     13.68813110	     -3.28831178	     58.00335419	      1.01234951	     33.07932450	     -8.48629764	     -7.49999987	     64.43448661	    -15.81446909	      3.29964455	     33.80927909	      0.59008324	      0.58495860	    -10.76184102	     -7.49999987	    -20.21201686	      8.34439173	      2.03823651	     50.76624991	     -5.27423989	     68.86062603	    124.23067250	    108.83384145	     42.38891409	      6.63370438	     68.18440009	    113.02157395	    108.91814149
      5.28333330	     -8.78435195	     -5.45185915	     -3.52108135	      0.86285986	      0.86943881	      0.35289530	     38.95070889	     13.65759335	     -3.34789854	     57.07423813	      0.99613337	     32.75646371	     -8.27311369	     -7.49999987	     63.70196282	    -15.79841810	      2.67400548	     33.01262716	      0.57617904	      0.53816983	    -10.49054109	     -7.49999987	    -19.30514747	      8.15729028	      1.75914944	     50.36111994	     -5.04578700	     68.81108878	    124.28968171	    108.81336268	     42.34456348	      6.30931041	     68.13356685	    113.07880180	    108.89710183
      5.30000000	     -8.59473851	     -5.28056924	     -3.22064488	      0.85786279	      0.87194226	      0.35088731	     38.32261445	     13.26972872	     -3.34595140	     56.29196977	      0.98248021	     32.23459305	     -8.31570543	     -7.49999987	     62.70749414	    -15.61031150	      1.65600355	     32.25441668	      0.56294577	      0.50569436	     -9.70345776	     -7.49999987	    -18.67014121	      7.59945348	      1.29536805	     50.20303433	     -4.56092288	     68.41570412	    124.08640796	    108.73725963	     42.31473078	      5.77003162	     67.71464647	    112.77582323	    108.80362029
      5.31666670	     -8.84223831	     -5.05723115	     -3.12266458	      0.84854605	      0.87217832	      0.34512171	     38.57521729	     12.76770292	     -3.42580450	     56.02987793	      0.97790585	     31.68171951	     -8.08187838	     -7.49999987	     62.62437205	    -15.27275635	      1.40731554	     32.32503355	      0.56417827	      0.42691774	     -9.48815478	     -7.49999987	    -17.95734150	      7.27489208	      1.23549208	     51.26460205	     -4.29040564	     68.03543293	    124.42300054	    108.68014404	     42.93293232	      5.69966813	     67.37889613	    112.97908471	    108.72999249
      5.33333330	     -8.74636539	     -4.76193871	     -2.87582687	      0.85422420	      0.87976127	      0.34702524	     37.92764766	     12.27941626	     -3.32401983	     55.11763233	      0.96198416	     31.52554298	     -7.75997057	     -7.49999987	     61.64086055	    -14.95904375	      0.48789417	     31.81374894	      0.55525467	      0.23480582	     -9.34625213	     -7.49999987	    -17.38908115	      6.71682132	      1.27602942	     51.49297153	     -4.31776222	     68.09528798	    124.70427339	    108.43075738	     42.28039356	      5.34835734	     66.78328670	    113.86182097	    108.49387249
